<svg width="60" height="60" viewBox="0 0 153 106" fill="none" xmlns="http://www.w3.org/2000/svg">
<path d="M69.0537 37.5811C69.0537 22.3145 87.1526 31.8967 92.496 37.5811C101.903 47.5884 119.272 35.338 124.691 26.3066" stroke="white" stroke-opacity="0.29" stroke-width="3" stroke-linecap="round"/>
<path d="M104.242 61.4162C111.908 61.4162 119.321 57.2493 127.054 57.2493C132.306 57.2493 136.271 72.332 137.959 76.2703C141.66 84.9077 130.054 108.749 123.554 93.2493" stroke="white" stroke-opacity="0.29" stroke-width="3" stroke-linecap="round"/>
<path d="M69.5186 61.0303H70.676" stroke="white" stroke-opacity="0.29" stroke-width="3" stroke-linecap="round"/>
<path d="M2 75.3055C2 87.3333 18.6648 89.9563 27.0537 89.7491C43.0537 86.2492 39.0537 72.0903 49.6915 72.0903C64.5537 76.2493 59.5259 88.6425 64.7814 96.8685C68.8551 103.245 98.5537 111.749 92.5537 93.2493" stroke="white" stroke-opacity="0.29" stroke-width="3" stroke-linecap="round"/>
<path d="M27.7314 55.367C31.3983 46.811 50.2244 21.7612 57.0537 42.2492" stroke="white" stroke-opacity="0.29" stroke-width="3" stroke-linecap="round"/>
<path d="M121.604 9.71631C127.54 9.71631 140.146 12.824 141.752 19.8333C142.675 23.8599 144.772 27.7375 143.896 32.0081C142.773 37.4821 136.381 39.462 134.722 44.44" stroke="white" stroke-opacity="0.29" stroke-width="3" stroke-linecap="round"/>
<path d="M22.4488 35.5662C22.126 35.5662 22.2326 35.6128 22.063 35.952" stroke="white" stroke-opacity="0.29" stroke-width="3" stroke-linecap="round"/>
<path d="M62.9595 2H63.7311" stroke="white" stroke-opacity="0.29" stroke-width="3" stroke-linecap="round"/>
<path d="M40.9682 96.14C42.5431 97.3999 39.8142 96.0642 39.0391 95.7542" stroke="white" stroke-opacity="0.29" stroke-width="3" stroke-linecap="round"/>
<path d="M150.926 52.9282H150.541" stroke="white" stroke-opacity="0.29" stroke-width="3" stroke-linecap="round"/>
</svg>
